<svg width="42" height="29" viewBox="0 0 42 29" fill="none" xmlns="http://www.w3.org/2000/svg">
<path fill-rule="evenodd" clip-rule="evenodd" d="M37.8668 7.47427C45.3095 1.47257 33.9673 -1.21466 16.653 9.31389C17.2992 8.70542 18.4205 7.89984 19.8031 7.03134C18.8478 6.94103 17.9196 6.98524 16.9585 7.21272C15.7942 7.48829 14.6951 7.98227 13.7269 8.66508C12.7587 9.34789 11.9414 10.2055 11.324 11.1865C10.7065 12.1675 10.3016 13.2517 10.1335 14.3742C9.96536 15.4967 10.0375 16.6344 10.3455 17.7192C10.6536 18.804 11.1912 19.8134 11.9263 20.6872C12.532 21.4073 13.5584 22.2136 14.4855 22.7678C17.6084 21.5658 21.3382 19.592 25.412 16.6732C23.7685 18.4726 18.2037 22.2575 14.1159 24.0405C8.43664 26.5177 -0.238243 26.3812 6.87641 19.7C3.30382 23.055 5.237 25.004 10.3349 24.0047C9.81141 23.6162 9.3922 23.1736 8.82216 22.4959C7.83762 21.3256 7.11748 19.9734 6.70486 18.5204C6.29225 17.0675 6.19565 15.5436 6.42084 14.04C6.64604 12.5365 7.18841 11.0842 8.01546 9.77019C8.84251 8.4562 9.93722 7.30751 11.234 6.39292C12.5309 5.47834 14.0031 4.81667 15.5625 4.44756C17.122 4.07845 18.7366 4.00949 20.3097 4.2448C21.5149 4.42509 22.6668 4.88831 23.1396 5.09509C25.4291 3.86067 27.9239 2.69236 30.0527 1.94906C36.6849 -0.36666 46.4806 0.528194 37.8668 7.47427Z" fill="#FF6600"/>
<path fill-rule="evenodd" clip-rule="evenodd" d="M25.205 8.70126C21.617 10.0547 17.3033 12.318 12.582 15.7007C14.4453 13.6605 20.7546 9.36933 25.3892 7.3478C31.8281 4.53927 41.6635 4.69399 33.5971 12.2689C37.8691 8.25719 35.1974 6.01854 28.6959 7.60448C29.0055 7.93323 30.0594 9.08119 30.5671 9.99684C31.4827 11.6479 31.6973 13.0423 31.8021 14.6707C31.9069 16.2991 31.6943 17.9328 31.177 19.4738C30.6597 21.0148 29.8484 22.4315 28.7916 23.639C27.7348 24.8465 26.4543 25.82 25.0268 26.5011C23.5993 27.1823 22.0542 27.5571 20.484 27.6031C18.9138 27.6491 17.3508 27.3653 15.8886 26.7688L15.0978 26.3893C13.4901 27.038 11.8561 27.6079 10.4205 27.982C4.49701 29.5255 -3.94766 28.0575 4.02346 22.6322C-2.86387 27.3199 6.79746 30.4537 22.5777 22.5304C21.9188 23.0571 20.7525 23.7476 19.3318 24.4703L19.669 24.5308C20.8413 24.4964 21.9948 24.2166 23.0606 23.7081C24.1263 23.1996 25.0823 22.4728 25.8712 21.5713C26.6602 20.6698 27.2659 19.6121 27.6521 18.4616C28.0383 17.3111 28.1971 16.0915 28.1188 14.8758C28.0406 13.66 27.8666 12.6265 27.1968 11.3863C26.6731 10.4166 25.876 9.20342 25.205 8.70126Z" fill="#E2E2E2"/>
</svg>
