<svg width="160" height="20" viewBox="0 0 160 20" fill="none" xmlns="http://www.w3.org/2000/svg">
<path d="M8.4695 19.9434C5.80566 19.9434 3.75655 19.1796 2.32218 17.6521C0.906432 16.1059 0.198559 13.7308 0.198559 10.5268C0.198559 7.32272 0.906432 4.94762 2.32218 3.40148C3.75655 1.85534 5.80566 1.08226 8.4695 1.08226H19.6744V4.93831H9.22394C8.57195 4.93831 8.01311 5.02214 7.5474 5.18979C7.10032 5.35744 6.72776 5.59961 6.42971 5.91629C6.13165 6.21434 5.8988 6.59622 5.73115 7.06193C5.56349 7.52764 5.45172 8.04923 5.39584 8.6267H19.5626V12.2592H5.3679C5.42378 12.8739 5.52624 13.4235 5.67526 13.9078C5.84292 14.3735 6.07577 14.774 6.37382 15.1093C6.67187 15.426 7.05375 15.6682 7.51946 15.8358C7.98516 16.0035 8.55333 16.0873 9.22394 16.0873H19.6744V19.9434H8.4695ZM33.5572 19.9434L27.7172 13.9358H26.7951V19.9434H21.7375V0.467531H26.7951V11.3092H27.7172L33.5851 5.77658H39.6207L32.4953 12.343L40.1236 19.9434H33.5572ZM76.9621 19.9434V16.4785H87.5243C88.0087 16.4785 88.3533 16.3947 88.5582 16.227C88.7818 16.0594 88.8935 15.7799 88.8935 15.3888C88.8935 15.0162 88.7818 14.7554 88.5582 14.6064C88.3533 14.4573 88.0087 14.3828 87.5243 14.3828H81.7403C79.9706 14.3828 78.6666 14.0009 77.8283 13.2372C76.9901 12.4734 76.5709 11.3837 76.5709 9.96793C76.5709 8.53356 76.9901 7.48106 77.8283 6.81045C78.6666 6.1212 79.9706 5.77658 81.7403 5.77658H93.1966V9.18555H82.8021C82.2805 9.18555 81.9079 9.25075 81.6844 9.38115C81.4795 9.51154 81.377 9.79097 81.377 10.2194C81.377 10.6479 81.4795 10.9366 81.6844 11.0856C81.9079 11.216 82.2805 11.2812 82.8021 11.2812H89.0332C89.9274 11.2812 90.6725 11.3837 91.2686 11.5886C91.8834 11.7935 92.377 12.0916 92.7496 12.4827C93.1221 12.8553 93.3829 13.321 93.532 13.8799C93.6996 14.4387 93.7834 15.0721 93.7834 15.7799C93.7834 16.4878 93.6996 17.1026 93.532 17.6241C93.3643 18.1457 93.0849 18.5835 92.6937 18.9374C92.3025 19.2727 91.7716 19.5242 91.101 19.6919C90.449 19.8595 89.6386 19.9434 88.67 19.9434H76.9621ZM95.2773 19.9434V1.08226H100.475V15.7799H113.747V19.9434H95.2773ZM115.143 19.9434V6.056H120.2V19.9434H115.143ZM115.143 4.18387V0.467531H120.2V4.18387H115.143ZM128.297 19.9434L121.368 5.77658H126.844L130.086 12.8739C130.477 13.7681 130.803 14.5319 131.064 15.1652C131.343 15.7986 131.52 16.2457 131.595 16.5064H131.762C131.855 16.2457 132.032 15.7986 132.293 15.1652C132.573 14.5319 132.917 13.7681 133.327 12.8739L136.708 5.77658H141.989L134.948 19.9434H128.297ZM148.757 19.9434C147.509 19.9434 146.428 19.8223 145.515 19.5801C144.621 19.3379 143.876 18.9374 143.28 18.3786C142.703 17.8197 142.265 17.0932 141.967 16.1991C141.687 15.2863 141.548 14.1686 141.548 12.846C141.548 11.542 141.669 10.443 141.911 9.5488C142.172 8.63602 142.581 7.9002 143.14 7.34135C143.718 6.78251 144.463 6.382 145.376 6.13983C146.307 5.89766 147.434 5.77658 148.757 5.77658H154.569C156.357 5.77658 157.68 6.15846 158.537 6.92222C159.393 7.66735 159.822 8.72916 159.822 10.1076C159.822 11.4861 159.468 12.4921 158.76 13.1254C158.052 13.7588 157.102 14.0755 155.91 14.0755H146.465C146.577 14.9882 146.857 15.6216 147.304 15.9755C147.751 16.3109 148.496 16.4785 149.539 16.4785H159.095V19.9434H148.757ZM149.539 8.79436C148.477 8.79436 147.723 8.98064 147.276 9.3532C146.829 9.70714 146.559 10.3126 146.465 11.1695H153.703C154.187 11.1695 154.532 11.0763 154.736 10.89C154.96 10.7038 155.072 10.4057 155.072 9.99588C155.072 9.60468 154.96 9.30663 154.736 9.10172C154.532 8.89681 154.187 8.79436 153.703 8.79436H149.539Z" fill="#E2E2E2"/>
</svg>
