<svg width="188" height="40" viewBox="0 0 188 40" fill="none" xmlns="http://www.w3.org/2000/svg">
<path d="M10.4347 29.77C7.33571 29.77 4.95188 28.8815 3.28319 27.1045C1.63618 25.3057 0.812671 22.5427 0.812671 18.8152C0.812671 15.0878 1.63618 12.3247 3.28319 10.526C4.95188 8.72725 7.33571 7.82789 10.4347 7.82789H23.47V12.3138H11.3124C10.5539 12.3138 9.90376 12.4114 9.36198 12.6064C8.84187 12.8014 8.40844 13.0832 8.0617 13.4516C7.71496 13.7983 7.44407 14.2426 7.24903 14.7844C7.05399 15.3261 6.92396 15.9329 6.85895 16.6047H23.3399V20.8306H6.82644C6.89145 21.5458 7.01065 22.1851 7.18402 22.7485C7.37906 23.2903 7.64995 23.7563 7.99669 24.1463C8.34343 24.5147 8.78769 24.7965 9.32947 24.9915C9.87125 25.1866 10.5322 25.2841 11.3124 25.2841H23.47V29.77H10.4347ZM39.6205 29.77L32.8266 22.781H31.7539V29.77H25.8701V7.11274H31.7539V19.7254H32.8266L39.653 13.289H46.6745L38.3853 20.9282L47.2596 29.77H39.6205ZM90.1159 29.77V25.7392H102.403C102.967 25.7392 103.368 25.6416 103.606 25.4466C103.866 25.2516 103.996 24.9265 103.996 24.4714C103.996 24.038 103.866 23.7346 103.606 23.5612C103.368 23.3878 102.967 23.3012 102.403 23.3012H95.6745C93.6158 23.3012 92.0988 22.8569 91.1236 21.9684C90.1484 21.0799 89.6608 19.8121 89.6608 18.1651C89.6608 16.4964 90.1484 15.272 91.1236 14.4918C92.0988 13.69 93.6158 13.289 95.6745 13.289H109.002V17.2549H96.9098C96.303 17.2549 95.8696 17.3307 95.6095 17.4824C95.3711 17.6341 95.252 17.9592 95.252 18.4576C95.252 18.9561 95.3711 19.292 95.6095 19.4653C95.8696 19.617 96.303 19.6929 96.9098 19.6929H104.159C105.199 19.6929 106.066 19.8121 106.759 20.0505C107.475 20.2889 108.049 20.6356 108.482 21.0907C108.916 21.5241 109.219 22.0659 109.392 22.716C109.587 23.3662 109.685 24.103 109.685 24.9265C109.685 25.75 109.587 26.4652 109.392 27.072C109.197 27.6787 108.872 28.188 108.417 28.5998C107.962 28.9899 107.345 29.2824 106.564 29.4775C105.806 29.6725 104.863 29.77 103.736 29.77H90.1159ZM111.423 29.77V7.82789H117.469V24.9265H132.91V29.77H111.423ZM134.533 29.77V13.6141H140.417V29.77H134.533ZM134.533 11.4362V7.11274H140.417V11.4362H134.533ZM149.837 29.77L141.775 13.289H148.147L151.918 21.5458C152.373 22.586 152.752 23.4745 153.055 24.2113C153.38 24.9482 153.586 25.4683 153.673 25.7717H153.868C153.976 25.4683 154.182 24.9482 154.486 24.2113C154.811 23.4745 155.212 22.586 155.688 21.5458L159.622 13.289H165.765L157.574 29.77H149.837ZM173.638 29.77C172.186 29.77 170.93 29.6292 169.868 29.3474C168.827 29.0657 167.961 28.5998 167.267 27.9496C166.595 27.2995 166.086 26.4543 165.739 25.4141C165.414 24.3522 165.252 23.0519 165.252 21.5133C165.252 19.9963 165.393 18.7177 165.674 17.6775C165.978 16.6156 166.454 15.7596 167.105 15.1094C167.776 14.4593 168.643 13.9934 169.705 13.7116C170.789 13.4299 172.1 13.289 173.638 13.289H180.4C182.48 13.289 184.019 13.7333 185.016 14.6218C186.013 15.4887 186.511 16.7239 186.511 18.3276C186.511 19.9313 186.099 21.1015 185.276 21.8383C184.452 22.5752 183.347 22.9436 181.96 22.9436H170.973C171.103 24.0055 171.428 24.7423 171.948 25.154C172.468 25.5441 173.335 25.7392 174.549 25.7392H185.666V29.77H173.638ZM174.549 16.7998C173.313 16.7998 172.436 17.0165 171.916 17.4499C171.395 17.8617 171.081 18.566 170.973 19.5629H179.392C179.956 19.5629 180.357 19.4545 180.595 19.2378C180.855 19.0211 180.985 18.6743 180.985 18.1976C180.985 17.7425 180.855 17.3957 180.595 17.1574C180.357 16.919 179.956 16.7998 179.392 16.7998H174.549Z" fill="#E2E2E2"/>
<path fill-rule="evenodd" clip-rule="evenodd" d="M91.1681 9.53098C99.8266 2.54888 86.6317 -0.577322 66.489 11.6711C67.2408 10.9632 68.5452 10.026 70.1538 9.01563C69.0424 8.91055 67.9625 8.96198 66.8443 9.22662C65.4899 9.54721 64.2112 10.1219 63.0849 10.9162C61.9586 11.7106 61.0078 12.7083 60.2894 13.8495C59.5711 14.9908 59.1001 16.2521 58.9045 17.558C58.7089 18.8639 58.7928 20.1874 59.1511 21.4494C59.5095 22.7113 60.135 23.8857 60.9901 24.9022C61.6949 25.74 62.8891 26.6781 63.9676 27.3229C67.6009 25.9245 71.9403 23.6282 76.6799 20.2323C74.768 22.3257 68.2941 26.7288 63.5386 28.8031C56.9316 31.6849 46.8396 31.5262 55.1165 23.7535C50.9606 27.6563 53.209 29.9237 59.1388 28.7617C58.5298 28.3096 58.0421 27.7947 57.3789 27.0064C56.2336 25.6449 55.3958 24.0718 54.9158 22.3815C54.4357 20.6912 54.3234 18.9183 54.5853 17.1692C54.8473 15.42 55.4783 13.7305 56.4404 12.2019C57.4026 10.6732 58.6761 9.3369 60.1848 8.27291C61.6934 7.20892 63.4062 6.43917 65.2204 6.00977C67.0346 5.58036 68.913 5.50013 70.743 5.77389C72.1452 5.98364 73.4853 6.52258 74.0352 6.76311C76.6987 5.32706 79.6011 3.96792 82.0776 3.1032C89.7932 0.409201 101.189 1.45023 91.1681 9.53098Z" fill="#FF6600"/>
<path fill-rule="evenodd" clip-rule="evenodd" d="M76.4377 10.9588C72.2638 12.5333 67.2454 15.1662 61.7531 19.1014C63.9208 16.728 71.2607 11.7358 76.6524 9.38407C84.1432 6.11675 95.5851 6.29674 86.2011 15.1091C91.171 10.4419 88.0627 7.83759 80.499 9.68276C80.8588 10.0649 82.0852 11.4007 82.676 12.4661C83.7411 14.3869 83.9908 16.0091 84.1128 17.9035C84.2347 19.7979 83.9873 21.6984 83.3855 23.4912C82.7837 25.2839 81.8398 26.932 80.6104 28.3368C79.381 29.7416 77.8913 30.8741 76.2307 31.6665C74.57 32.4589 72.7725 32.8949 70.9458 32.9484C69.119 33.0019 67.3007 32.6718 65.5997 31.9779L64.68 31.5365C62.8097 32.2911 60.9089 32.954 59.2389 33.3892C52.3478 35.1849 42.5237 33.4771 51.7969 27.1655C43.7845 32.619 55.024 36.2646 73.3821 27.0471C72.6154 27.6599 71.2586 28.4632 69.6058 29.3039L69.9976 29.3742C71.3614 29.3343 72.7034 29.0087 73.9432 28.4171C75.183 27.8256 76.2952 26.9801 77.213 25.9313C78.1309 24.8825 78.8356 23.6521 79.2848 22.3137C79.7341 20.9752 79.9188 19.5564 79.8278 18.142C79.7368 16.7277 79.5343 15.5254 78.7552 14.0826C78.1458 12.9543 77.2184 11.5428 76.4377 10.9588Z" fill="#E2E2E2"/>
</svg>
